<?xml version="1.0" encoding="UTF-8" standalone="no"?>
<svg 
   xmlns="http://www.w3.org/2000/svg"
   height="400" width="400"
   viewBox="-100 -100 200 200"
   >
  
   
   <defs>
    <marker id="arrowhead" markerWidth="10" markerHeight="7" 
    refX="0" refY="3.5" orient="auto">
      <polygon points="0 0, 10 3.5, 0 7" />
    </marker>
    
    <marker id="startarrow" markerWidth="10" markerHeight="7" 
    refX="10" refY="3.5" orient="auto">
      <polygon points="10 0, 10 7, 0 3.5" fill="green" />
    </marker>
    
    <marker id="endarrow" markerWidth="10" markerHeight="7" 
    refX="0" refY="3.5" orient="auto">
      <polygon points="0 0, 10 3.5, 0 7"  fill="green" />
    </marker>
  </defs>
  
  
    <circle id="body1" cx="45" cy="15" r="10"
    stroke="black" stroke-width="0.5" fill="green" />
    
    <circle id="body2" cx="5" cy="15" r="5"
    stroke="black" stroke-width="0.5" fill="red" />
    
    <circle id="body3" cx="35" cy="45" r="5"
    stroke="black" stroke-width="0.5" fill="blue" />
    
    <circle id="body4" cx="35" cy="25" r="5"
    stroke="black" stroke-width="0.5" fill="yellow" />
    
    
  <line x1="45" y1="15" x2="55" y2="15" stroke="#000" 
  stroke-width="0.3" marker-end="url(#arrowhead)"
   id = "speed1"
   />
  <line x1="5" y1="15" x2="0" y2="0" stroke="#000" 
  stroke-width="0.3" marker-end="url(#arrowhead)"
   id = "speed2"
   />
  <line x1="35" y1="45" x2="35" y2="55" stroke="#000" 
  stroke-width="0.3" marker-end="url(#arrowhead)"
   id = "speed3"
   />
  <line x1="35" y1="45" x2="35" y2="55" stroke="#000" 
  stroke-width="0.3" marker-end="url(#arrowhead)"
   id = "speed4"
   />
   
  <line x1="45" y1="15" x2="55" y2="15" stroke="green" 
  stroke-width="0.3" marker-end="url(#endarrow)"
   id = "gravitation1"
   />
  <line x1="5" y1="15" x2="0" y2="0" stroke="green" 
  stroke-width="0.3" marker-end="url(#endarrow)"
   id = "gravitation2"
   />
  <line x1="35" y1="45" x2="35" y2="55" stroke="green" 
  stroke-width="0.3" marker-end="url(#endarrow)"
   id = "gravitation3"
   />
  <line x1="35" y1="45" x2="35" y2="55" stroke="green" 
  stroke-width="0.3" marker-end="url(#endarrow)"
   id = "gravitation4"
   />
    
</svg> 
